<svg id="Layer_1" data-name="Layer 1" xmlns="http://www.w3.org/2000/svg" viewBox="0 0 301.13 93.66"><defs><style>.cls-1{fill:#8a741d;}</style></defs><title>sfo_museum_rgb_wht_mobile</title><path class="cls-1" d="M258.47,116.2q-9.69.09-19.75.93A285,285,0,0,1,269,125.84v-9.43C265.65,116.23,262.2,116.16,258.47,116.2Z" transform="translate(-93.73 -56.25)"/><path class="cls-1" d="M203.15,122.11a312.48,312.48,0,0,0-51.52,14.74,307.85,307.85,0,0,1,56.12-2.1,553.12,553.12,0,0,1,61.25,7.5V129a293.84,293.84,0,0,0-39.91-10.92Q216.33,119.55,203.15,122.11Z" transform="translate(-93.73 -56.25)"/><path class="cls-1" d="M212.9,115.3a319,319,0,0,0-33-2.52c-4.56-.12-9.37-.09-14.31.07A345.18,345.18,0,0,0,93.84,123l0,26.92.2-.09c5.86-2,11.93-3.59,17.85-5.08,6.18-1.56,12.39-3.05,18.63-4.36a313,313,0,0,1,71.69-23.18C205.78,116.5,209.35,115.88,212.9,115.3Z" transform="translate(-93.73 -56.25)"/><path class="cls-1" d="M296.27,84.73c-.13-2.76-.29-6.07-.25-9h-.1c-.7,2.6-1.59,5.5-2.54,8.2l-3.15,9.28h-3l-2.86-9.15c-.82-2.74-1.59-5.66-2.16-8.33h-.06c-.1,2.8-.22,6.2-.38,9.12l-.48,8.61h-3.65l1.43-21.42h5.14l2.8,8.62c.76,2.51,1.43,5,2,7.43h.1c.57-2.32,1.3-5,2.13-7.47l2.95-8.58h5.09l1.24,21.42h-3.82Z" transform="translate(-93.73 -56.25)"/><path class="cls-1" d="M317.93,88.75c0,1.88.06,3.43.13,4.72H314.6l-.2-2.36h-.09a5.78,5.78,0,0,1-5.08,2.72c-2.85,0-5.46-1.71-5.46-6.85V77.73h4V86.3c0,2.62.84,4.3,2.94,4.3a3.22,3.22,0,0,0,3-2.14,2.73,2.73,0,0,0,.23-1.23v-9.5h4Z" transform="translate(-93.73 -56.25)"/><path class="cls-1" d="M322.46,89.79a8.62,8.62,0,0,0,4,1.16c1.74,0,2.52-.74,2.52-1.78s-.65-1.58-2.59-2.29c-3.07-1-4.33-2.72-4.33-4.59,0-2.78,2.3-4.92,5.95-4.92a9,9,0,0,1,4.2.94l-.8,2.78a7,7,0,0,0-3.33-.9c-1.43,0-2.2.71-2.2,1.68s.74,1.45,2.75,2.2c2.87,1,4.17,2.45,4.2,4.78,0,2.88-2.23,5-6.4,5a10.27,10.27,0,0,1-4.79-1.1Z" transform="translate(-93.73 -56.25)"/><path class="cls-1" d="M339.67,86.72c.1,2.84,2.33,4.07,4.85,4.07a12.74,12.74,0,0,0,4.37-.71l.58,2.72a14.22,14.22,0,0,1-5.5,1c-5.11,0-8.11-3.14-8.11-8,0-4.36,2.65-8.47,7.69-8.47s6.79,4.21,6.79,7.67a9.31,9.31,0,0,1-.13,1.68Zm6.92-2.78c0-1.46-.61-3.85-3.27-3.85-2.45,0-3.49,2.23-3.65,3.85Z" transform="translate(-93.73 -56.25)"/><path class="cls-1" d="M367.53,88.75c0,1.88.06,3.43.13,4.72H364.2l-.2-2.36h-.09a5.77,5.77,0,0,1-5.08,2.72c-2.84,0-5.46-1.71-5.46-6.85V77.73h4V86.3c0,2.62.84,4.3,3,4.3a3.24,3.24,0,0,0,3-2.14,2.88,2.88,0,0,0,.22-1.23v-9.5h4Z" transform="translate(-93.73 -56.25)"/><path class="cls-1" d="M371.65,82.42c0-1.81-.07-3.33-.13-4.69h3.39l.2,2.33h.09a5.38,5.38,0,0,1,4.86-2.69,4.55,4.55,0,0,1,4.36,2.91h.07a6.09,6.09,0,0,1,1.9-2,5.52,5.52,0,0,1,3.24-.94c2.58,0,5.23,1.78,5.23,6.82v9.28H391V84.78c0-2.62-.9-4.17-2.81-4.17a3,3,0,0,0-2.78,2.1A4.17,4.17,0,0,0,385.2,84v9.44h-3.88V84.36c0-2.2-.88-3.75-2.72-3.75a3.19,3.19,0,0,0-2.88,2.23,4.48,4.48,0,0,0-.19,1.32v9.31h-3.88Z" transform="translate(-93.73 -56.25)"/><path class="cls-1" d="M93.73,56.27l.1,63.63a347,347,0,0,1,71.7-10c5-.17,9.87-.2,14.49-.07,11.1.29,27.49,1.23,42.79,4a294.23,294.23,0,0,1,35.61-2.62c3.73,0,7.21,0,10.58.2V56.25Zm108.2,37.25a17.9,17.9,0,0,1-7.34-1.5l1.87-3a16.11,16.11,0,0,0,5.85,1.19c3,0,4.68-1.14,4.68-2.87,0-1.57-1.24-2.51-4.69-3.41-4.48-1.15-7.29-3-7.29-6.25,0-3.53,3.61-6.16,9.15-6.16a17,17,0,0,1,6.41,1.08l-1.81,3a14.06,14.06,0,0,0-4.7-.79c-3,0-4.29,1.31-4.29,2.55,0,1.62,1.56,2.39,5.07,3.37,4.62,1.3,6.92,3.07,6.92,6.38S208.87,93.52,201.93,93.52Zm29.83-18.34H220.91V80.9h8.52l-.83,3.27h-7.69v9h-4.65V71.9h15.5Zm14.83,18.33h0C239,93.51,234,88.92,234,82.82c0-6.52,5.37-11.15,12.87-11.15,7.73,0,12.64,4.6,12.64,10.73C259.55,89.17,254,93.51,246.59,93.51Z" transform="translate(-93.73 -56.25)"/><path class="cls-1" d="M246.78,74.82c-5,0-7.86,3.58-7.86,7.89a7.44,7.44,0,0,0,7.8,7.65h0a7.77,7.77,0,1,0,0-15.54Z" transform="translate(-93.73 -56.25)"/></svg>